<svg xmlns="http://www.w3.org/2000/svg" width="48" height="50" viewBox="0 0 8 10"
                                fill="none">
                                <path
                                    d="M2.26445 5.79429L1.47158 5.03919C1.19236 4.77326 0.747865 4.79349 0.493952 5.08369C0.26448 5.34593 0.271235 5.73944 0.509571 5.99367L3.09409 8.7505C3.25855 8.92592 3.48786 9.02544 3.72831 9.02544C4.20024 9.02544 4.97612 9.02544 5.74414 9.02544C6.78804 9.02544 7.48398 8.15552 7.48398 7.28559C7.48398 7.28559 7.48398 4.30302 7.48398 3.55737"
                                    stroke="#003DF6" stroke-width="0.652441" stroke-linecap="round"
                                    stroke-linejoin="round" />
                                <path
                                    d="M6.17908 3.80588C6.17908 3.80588 6.17908 3.75146 6.17908 3.55733C6.17908 2.56313 7.48396 2.56313 7.48396 3.55733"
                                    stroke="#003DF6" stroke-width="0.652441" stroke-linecap="round"
                                    stroke-linejoin="round" />
                                <path
                                    d="M4.87421 3.8059C4.87421 3.8059 4.87421 3.44851 4.87421 3.06025C4.87421 2.06606 6.17909 2.06606 6.17909 3.06025C6.17909 3.15732 6.17909 3.46029 6.17909 3.55735C6.17909 3.75148 6.17909 3.8059 6.17909 3.8059"
                                    stroke="#003DF6" stroke-width="0.652441" stroke-linecap="round"
                                    stroke-linejoin="round" />
                                <path
                                    d="M3.56934 3.80595C3.56934 3.80595 3.56934 3.20385 3.56934 2.71852C3.56934 1.72433 4.87422 1.72433 4.87422 2.71852C4.87422 2.71852 4.87422 2.96322 4.87422 3.06028C4.87422 3.44854 4.87422 3.80595 4.87422 3.80595"
                                    stroke="#003DF6" stroke-width="0.652441" stroke-linecap="round"
                                    stroke-linejoin="round" />
                                <path
                                    d="M2.2644 5.79429V0.978659C2.2644 0.618324 2.55651 0.326218 2.91685 0.326218C3.27717 0.326218 3.56929 0.617885 3.56929 0.97822C3.56929 1.49612 3.56929 2.21463 3.56929 2.7185C3.56929 3.20382 3.56929 3.80591 3.56929 3.80591"
                                    stroke="#003DF6" stroke-width="0.652441" stroke-linecap="round"
                                    stroke-linejoin="round" />
                            </svg>